# xmcd CD database file
#
# Track frame offsets:
#	150
#	12852
#	23877
#	44400
#	57900
#	76567
#	91765
#	101822
#	123605
#	136510
#	152805
#	168877
#	185527
#	202385
#	216220
#	229920
#	242947
#	255890
#	270680
#	285715
#
# Disc length: 4009 seconds
#
# Revision: 0
# Processed by: cddbd v1.5.2PL0 Copyright (c) Steve Scherf et al.
# Submitted via: CDex 1.70beta2
#
DISCID=120fa714
DTITLE=John Williamson - Country Classics 2 [CD 1)
DYEAR=2006
DGENRE=Country
TTITLE0=We love This Country
TTITLE1=Beachcomber from Wolongong
TTITLE2=Tubbo Station
TTITLE3=A Mighty Big River
TTITLE4=Wonthaggi
TTITLE5=You Come Back to Tassie
TTITLE6=Pickin' on the Murray
TTITLE7=Coober Pedy
TTITLE8=Alice Springs
TTITLE9=Campfire on the Road
TTITLE10=Westown
TTITLE11=Vegie Bill
TTITLE12=Prettiest Girl in the Kimberly
TTITLE13=Cape York Peninsula
TTITLE14=Frangipani Bay
TTITLE15=Back at the Isa
TTITLE16=Charters Towers
TTITLE17=At Lightning Ridge
TTITLE18=Coolabah Blue
TTITLE19=On the Improve
EXTD=YEAR: 2006
EXTT0=
EXTT1=
EXTT2=
EXTT3=
EXTT4=
EXTT5=
EXTT6=
EXTT7=
EXTT8=
EXTT9=
EXTT10=
EXTT11=
EXTT12=
EXTT13=
EXTT14=
EXTT15=
EXTT16=
EXTT17=
EXTT18=
EXTT19=
PLAYORDER=
